<svg xmlns="http://www.w3.org/2000/svg" xmlns:xlink="http://www.w3.org/1999/xlink" version="1.1" x="0px" y="0px" viewBox="0 0 100 125" enable-background="new 0 0 100 100" xml:space="preserve"><path fill="#000000" d="M10.839,36.801h27.146V0H10.839V36.801z M14.146,3.307h20.532v30.187H14.146V3.307z"/><path fill="#000000" d="M66.384,0v26.053H88.88V0H66.384z M85.573,22.746H69.692h-0.001l0.001-19.439h15.881V22.746z"/><polygon fill="#000000" points="60.031,68.659 58.379,68.659 45.482,68.659 43.828,68.659 42.354,68.659 42.354,100 50.891,100   50.892,75.379 52.971,75.379 52.969,100 61.542,100 61.542,68.659 "/><path fill="#000000" d="M51.931,37.299c-7.11,0-12.894,5.785-12.894,12.897v18.461h3.307V50.196c0-3.282,1.658-6.181,4.178-7.911  l5.409,5.411l5.41-5.41c2.52,1.73,4.177,4.629,4.177,7.91v18.461h3.307V50.196C64.825,43.084,59.041,37.299,51.931,37.299z   M51.931,43.02l-2.16-2.16c0.695-0.161,1.416-0.254,2.16-0.254c0.744,0,1.464,0.093,2.16,0.254L51.931,43.02z"/><path fill="#000000" d="M51.931,36.64c5.623,0,10.197-4.575,10.197-10.197c0-2.573-0.966-4.92-2.544-6.717  c0.724-0.375,1.032-0.93,1.158-1.324c0.309-0.963-0.075-2.154-1.048-3.268c-0.609-0.697-1.38-1.277-2.226-1.698l0.024-0.076  c0.186-0.579-0.134-1.199-0.714-1.383c-0.579-0.193-1.201,0.133-1.384,0.714l-0.022,0.069c-0.378-0.06-0.762-0.091-1.15-0.091  c-1.833,0-3.905,0.694-4.398,2.243c-0.157,0.492-0.12,1.028,0.085,1.537c-4.657,0.941-8.174,5.064-8.174,9.994  C41.734,32.065,46.308,36.64,51.931,36.64z M51.931,19.553c3.799,0,6.89,3.091,6.89,6.89c0,3.798-3.091,6.89-6.89,6.89  c-3.799,0-6.889-3.091-6.889-6.89C45.041,22.644,48.131,19.553,51.931,19.553z"/><path fill="#000000" d="M51.15,25.473c0-0.3-0.061-0.584-0.156-0.851c0.021-0.503,0.429-0.907,0.937-0.907s0.915,0.404,0.936,0.907  c-0.095,0.268-0.156,0.551-0.156,0.851c0,1.419,1.154,2.573,2.574,2.573c1.419,0,2.572-1.154,2.572-2.573  c0-1.419-1.153-2.574-2.572-2.574c-0.633,0-1.207,0.239-1.656,0.62c-0.367-0.546-0.991-0.906-1.698-0.906  c-0.706,0-1.331,0.361-1.698,0.906c-0.449-0.381-1.022-0.62-1.655-0.62c-1.419,0-2.572,1.154-2.572,2.574  c0,1.419,1.153,2.573,2.572,2.573S51.15,26.892,51.15,25.473z M55.284,24.003c0.81,0,1.471,0.66,1.471,1.471  c0,0.81-0.66,1.471-1.471,1.471c-0.811,0-1.471-0.66-1.471-1.471C53.813,24.662,54.473,24.003,55.284,24.003z M47.107,25.473  c0-0.811,0.66-1.471,1.47-1.471c0.811,0,1.471,0.66,1.471,1.471c0,0.81-0.66,1.471-1.471,1.471  C47.767,26.944,47.107,26.284,47.107,25.473z"/><path fill="#000000" d="M11.344,52.373h26.641v-12.95H11.344V52.373z M14.651,42.731h20.027v6.335H14.651V42.731z"/><path fill="#000000" d="M66.384,52.373H88.88V29.878H66.384V52.373z M69.692,33.186h15.881v15.881H69.692V33.186z"/><path fill="#000000" d="M66.37,68.667h10.192V55.397H66.37V68.667z M69.677,58.705h3.578v6.656h-3.578V58.705z"/><path fill="#000000" d="M78.689,68.667H88.88V55.397H78.689V68.667z M81.996,58.705h3.577v6.656h-3.577V58.705z"/><text x="0" y="115" fill="#000000" font-size="5px" font-weight="bold" font-family="'Helvetica Neue', Helvetica, Arial-Unicode, Arial, Sans-serif">Created by Piotrek Chuchla</text><text x="0" y="120" fill="#000000" font-size="5px" font-weight="bold" font-family="'Helvetica Neue', Helvetica, Arial-Unicode, Arial, Sans-serif">from the Noun Project</text></svg>