<svg xmlns="http://www.w3.org/2000/svg" xmlns:xlink="http://www.w3.org/1999/xlink" version="1.1" x="0px" y="0px" viewBox="0 0 100 125" enable-background="new 0 0 100 100" xml:space="preserve"><path fill-rule="evenodd" clip-rule="evenodd" d="M94.878,75.587c1.246,0,2.367,0,3.499,0c0.021-0.144,0.076-0.268,0.038-0.308  c-0.843-0.965-0.724-2.167-0.785-3.305c-0.226-4.115-0.414-8.233-0.583-12.35c-0.02-0.45,0.103-0.948,0.294-1.362  c0.812-1.762,1.693-3.487,2.497-5.253c0.185-0.408,0.271-0.93,0.209-1.368c-0.448-3.074-0.933-6.14-1.451-9.2  c-0.051-0.301-0.381-0.653-0.67-0.793c-0.749-0.36-1.542-0.642-2.334-0.904c-0.462-0.155-0.59-0.411-0.517-0.864  c0.111-0.678,0.283-1.365,0.245-2.038c-0.05-0.87-0.262-1.734-0.459-2.584c-0.037-0.149-0.347-0.318-0.539-0.33  c-0.682-0.04-1.367-0.014-2.025-0.014c-0.753,1.644-0.981,3.237,0.048,4.926c-1.236,0.113-2.3,0.237-3.364,0.301  c-0.481,0.028-0.651,0.239-0.743,0.69c-0.507,2.517-1.063,5.022-1.547,7.542c-0.076,0.394-0.009,0.949,0.226,1.244  c1.981,2.528,2.376,5.479,2.591,8.562c0.36,5.151,0.893,10.291,1.383,15.435c0.055,0.577-0.085,0.873-0.634,1.062  c-0.427,0.146-0.813,0.411-1.216,0.625c0.038,0.09,0.075,0.183,0.112,0.275c1.561,0,3.12,0,4.771,0  c-0.176-3.556-0.351-7.091-0.526-10.627c0.059-0.005,0.117-0.008,0.176-0.017C94.007,68.47,94.438,72.012,94.878,75.587z"/><path fill-rule="evenodd" clip-rule="evenodd" d="M10.322,84.639c-1.632,0-3.102,0-4.584,0c-0.028-0.188-0.1-0.352-0.05-0.404  c1.104-1.262,0.947-2.838,1.029-4.33c0.295-5.389,0.542-10.785,0.763-16.176c0.026-0.59-0.135-1.24-0.385-1.783  c-1.062-2.309-2.218-4.572-3.271-6.883c-0.241-0.535-0.356-1.219-0.273-1.793c0.586-4.026,1.221-8.042,1.901-12.05  c0.067-0.395,0.498-0.855,0.878-1.04c0.98-0.472,2.018-0.841,3.057-1.186c0.604-0.201,0.772-0.537,0.676-1.132  c-0.146-0.888-0.371-1.789-0.321-2.67c0.065-1.14,0.344-2.272,0.601-3.386c0.048-0.195,0.454-0.415,0.707-0.432  c0.893-0.049,1.791-0.018,2.653-0.018c0.987,2.153,1.285,4.243-0.063,6.453c1.619,0.15,3.013,0.312,4.407,0.395  c0.631,0.039,0.854,0.313,0.974,0.905c0.664,3.298,1.392,6.579,2.027,9.878c0.099,0.518,0.01,1.243-0.296,1.631  c-2.596,3.311-3.112,7.176-3.394,11.213c-0.472,6.748-1.169,13.48-1.811,20.221c-0.072,0.754,0.111,1.145,0.83,1.391  c0.559,0.191,1.065,0.539,1.593,0.816c-0.05,0.121-0.1,0.242-0.148,0.363c-2.044,0-4.087,0-6.251,0  c0.231-4.66,0.46-9.291,0.69-13.922c-0.078-0.004-0.153-0.01-0.23-0.021C11.463,75.316,10.896,79.953,10.322,84.639z"/><g><g><polygon fill="none" stroke="#000000" stroke-linecap="round" stroke-linejoin="round" stroke-miterlimit="10" points="    96.964,53.164 49.525,65.926 49.525,3.888 96.964,16.649   "/><g><g><path fill-rule="evenodd" clip-rule="evenodd" d="M80.264,26.939c1.396,5.46,2.754,10.611,4.128,15.649      c-6.892,0.658-13.707,1.309-20.654,1.972c2.085-4.41,4.115-8.543,6.14-12.494c1.379,2.021,2.73,3.946,4.132,5.88      C76.116,34.056,78.158,30.469,80.264,26.939z"/><path fill-rule="evenodd" clip-rule="evenodd" d="M67.864,28.823c0.001,1.701-0.918,3.057-2.054,3.031      c-1.131-0.025-2.081-1.507-2.092-3.252c-0.008-1.754,0.925-3.11,2.063-3.008C66.941,25.699,67.86,27.127,67.864,28.823z"/><path fill-rule="evenodd" clip-rule="evenodd" fill="none" stroke="#000000" stroke-miterlimit="10" d="M85.625,44.234      c0,1.092-0.728,2.078-1.629,2.207l-20.863,2.977c-0.901,0.128-1.629-0.918-1.629-2.343V22.749c0-1.422,0.728-2.474,1.629-2.345      l20.863,2.975c0.901,0.129,1.629,1.118,1.629,2.208V44.234z"/></g></g></g></g><g><g><polygon fill="none" stroke="#000000" stroke-linecap="round" stroke-linejoin="round" stroke-miterlimit="10" points="    49.525,65.926 2.086,52.488 2.086,16.649 49.525,3.888   "/><g><g><path fill-rule="evenodd" clip-rule="evenodd" fill="none" stroke="#000000" stroke-miterlimit="10" d="M45.016,39.332      c0,1.526-0.619,2.713-1.387,2.656l-17.764-1.315c-0.768-0.057-1.387-1.101-1.387-2.336V17.243c0-1.233,0.619-2.371,1.387-2.538      l17.764-3.887c0.768-0.168,1.387,0.934,1.387,2.457V39.332z"/><g><path fill-rule="evenodd" clip-rule="evenodd" d="M34.557,20.3c0.019,0.104,0.036,0.195,0.055,0.293       c0.127,0,0.251,0,0.384,0.001c0,0.772,0,1.53,0,2.317c-0.481,0.055-0.949,0.109-1.434,0.164       c-0.005,0.121-0.011,0.214-0.011,0.307c0.002,1.632,0.006,3.265,0.004,4.897c0,0.228,0.061,0.393,0.207,0.522       c0.333,0.3,0.662,0.613,0.995,0.92c0.281,0.262,0.351,0.253,0.642-0.075c-0.42-0.294-0.833-0.589-1.255-0.863       c-0.187-0.121-0.263-0.288-0.262-0.553c0.01-1.526,0.009-3.052,0.011-4.578c0-0.061,0.005-0.121,0.009-0.203       c0.88-0.097,1.756-0.193,2.651-0.292c0,1.724,0,3.438,0,5.178c0.118-0.007,0.217-0.013,0.335-0.02c0-0.831,0-1.66,0-2.512       c0.977-0.081,1.938-0.161,2.91-0.242c0.013,0.189,0.025,0.379,0.04,0.6c0.2-0.015,0.4-0.031,0.62-0.048       c0,0.66,0.004,1.286-0.002,1.912c-0.001,0.202-0.122,0.251-0.249,0.286c-0.908,0.249-1.82,0.475-2.724,0.75       c-1.059,0.318-2.077,0.798-3.025,1.495c-0.06,0.043-0.119,0.09-0.179,0.138c0.276,0.408,0.333,0.424,0.697,0.185       c0.797-0.53,1.581-1.11,2.466-1.389c0.825-0.264,1.651-0.521,2.478-0.785c0.335-0.108,0.672-0.215,1.022-0.329       c0,1.049,0,2.077,0,3.139c-0.487-0.131-0.958-0.253-1.429-0.382c-0.933-0.251-1.863-0.503-2.793-0.748       c-0.333-0.085-0.483-0.026-0.86,0.35c0.078,0.036,0.138,0.066,0.199,0.091c1.52,0.653,3.04,1.326,4.559,2.022       c0.336,0.157,0.35,0.182,0.35,0.659c0.002,0.436,0.001,0.87,0.001,1.323c-0.093,0.004-0.162,0.012-0.229,0.011       c-0.952-0.005-1.902-0.016-2.852-0.017c-0.21,0-0.383-0.082-0.538-0.26c-1.704-1.946-3.409-3.824-5.115-5.635       c-0.14-0.145-0.209-0.317-0.209-0.546c0.002-2.407,0.002-4.814,0.002-7.22c0-0.049,0.008-0.1,0.013-0.163       c0.136-0.036,0.267-0.071,0.402-0.107c0.02-0.101,0.038-0.194,0.059-0.302C33.179,20.495,33.858,20.399,34.557,20.3z"/><path fill-rule="evenodd" clip-rule="evenodd" d="M35.415,34.76c-1.206-0.008-2.366-0.016-3.545-0.023       c0.207-0.481,0.395-0.961,0.612-1.424c0.216-0.458,0.463-0.898,0.718-1.395c0.008,0.062,0.009,0.051,0.006,0.045       c-0.26-0.514-0.332-0.532-0.759-0.202c-0.373,0.285-0.666,0.665-0.925,1.085c-0.342,0.551-0.693,1.089-1.028,1.638       c-0.124,0.205-0.266,0.302-0.476,0.284c-0.161-0.014-0.321-0.004-0.493-0.006c0-1.978,0-3.928,0-5.889       c0.13-0.027,0.252-0.054,0.394-0.083c0-1.547,0-3.083,0-4.653c0.225,0.016,0.381-0.188,0.55-0.258       c0.295-0.123,0.632-0.145,0.936-0.11c0.144,0.017,0.292,0.212,0.29,0.485c-0.008,1.322,0,2.643-0.005,3.966       c-0.002,0.337,0.08,0.617,0.249,0.878c1.106,1.742,2.207,3.532,3.309,5.361C35.295,34.544,35.342,34.631,35.415,34.76z"/><path fill-rule="evenodd" clip-rule="evenodd" d="M38.897,25.163c-0.654,0.058-1.314,0.116-1.997,0.175       c0-0.879,0-1.749,0-2.659c-0.418,0.048-0.815,0.093-1.222,0.14c0-1.298,0-2.558,0-3.848c0.079-0.003,0.153-0.016,0.224-0.007       c0.914,0.113,1.826,0.24,2.741,0.359c0.173,0.022,0.281,0.101,0.281,0.351c-0.004,1.807-0.006,3.613-0.01,5.42       C38.914,25.111,38.906,25.129,38.897,25.163z"/></g></g></g></g></g><text x="0" y="115" fill="#000000" font-size="5px" font-weight="bold" font-family="'Helvetica Neue', Helvetica, Arial-Unicode, Arial, Sans-serif">Created by Vijay Ragavan</text><text x="0" y="120" fill="#000000" font-size="5px" font-weight="bold" font-family="'Helvetica Neue', Helvetica, Arial-Unicode, Arial, Sans-serif">from the Noun Project</text></svg>