<svg xmlns="http://www.w3.org/2000/svg" xmlns:xlink="http://www.w3.org/1999/xlink" version="1.1" x="0px" y="0px" viewBox="0 0 100 125" enable-background="new 0 0 100 100" xml:space="preserve"><g><path fill="none" d="M40.726,80.807c-0.528-2.481-1.066-5.007-1.612-7.117c-1.674,5.352-2.927,10.479-2.806,12.355   c1.764,0.973,1.882,3.219,1.95,4.503c0.024,0.455,0.062,1.171,0.161,1.524c0.388,0.018,1.636-0.108,4.633-1.588   C42.213,87.776,41.458,84.252,40.726,80.807z"/><path fill="none" d="M36.793,42.242c-0.004,0.002-0.008,0.005-0.011,0.007c1.281,0.361,3.438,0.581,4.656,0.467   C39.813,41.501,38.252,41.341,36.793,42.242z"/><path fill="none" d="M70.819,75.018c-0.87,0-1.718-0.167-2.541-0.501c-5.571-2.261-7.958-11.692-8.557-14.521   c-6.122-0.175-12.128-1.211-17.665-2.533c-0.833,3.389-1.44,7.916-0.375,9.958c1.317,2.523,2.344,7.347,3.43,12.453   c0.883,4.15,1.796,8.444,2.77,10.878c0.953,2.381,2.358,3.615,2.971,3.871c0.161-0.302,0.476-1.134,0.476-3.039   c0-1.457,0.128-14.26,4.577-15.148c1.24-0.249,6.653-0.423,8.157-0.206c0.938,0.134,1.68,0.744,2.203,1.816   c1.007,2.057,2.757,11.215,1.841,14.187c0.031,0.479,0.355,1.37,0.685,1.873c0.322-0.379,0.879-1.213,1.56-2.964   c2.014-5.177,3.261-11.883,3.988-16.978C73.132,74.731,71.957,75.018,70.819,75.018z"/><path fill="none" d="M75.179,90.984c4.149,0.204,5.826-0.533,6.479-1.058c0.756-0.609,0.892-1.516,1.024-2.936   c0.087-0.926,0.175-1.877,0.617-2.742c-0.128-1.429-2.048-5.524-4.443-9.928C78.186,79.152,77.036,85.548,75.179,90.984z"/><path fill="none" d="M62.485,80.615c-1.439-0.036-3.866,0.058-5.08,0.15c-0.42,0.859-1.152,3.076-1.454,7.044   c2.467-0.233,5.461-0.006,7.849,0.283C63.563,85.596,63.01,82.192,62.485,80.615z"/><path fill="none" d="M32.964,78.839c-4.825-1.125-14.556-4.331-13.626-11.77c0.177-1.42-0.45-2.895-1.865-4.383   c-1.433-1.509-3.248-2.62-4.803-3.338c2.725,2.368,5.642,5.913,5.993,7.835c0.205,1.125-0.153,2.168-0.919,2.837   c0.403,1.097,1.718,3.054,2.461,3.808c0.399,0.165,0.97,0.447,1.941,0.928c5.934,2.93,9.542,4.391,10.767,4.291   C32.93,78.979,32.948,78.907,32.964,78.839z"/><path fill="none" d="M32.126,79.735l0.56,0.312c0.068-0.312,0.143-0.639,0.222-0.974C32.708,79.131,32.357,79.322,32.126,79.735z"/><path fill="none" d="M40.227,21.748c1.263,0.293,4.044-0.303,8.837-7.13c-5.078,0.061-9.337,0.504-12.634,1.307   C37.026,18.264,38.232,21.285,40.227,21.748z"/><path fill="none" d="M69.122,72.438c1.669,0.679,3.501,0.319,5.587-1.067c0.253-2.076,0.399-3.652,0.458-4.347l-2.406-8.213   c-3.351,0.772-6.934,1.174-10.741,1.207C62.871,63.781,65.204,70.852,69.122,72.438z"/><path fill="none" d="M84.951,8.419c-0.048-0.238-0.099-0.485-0.148-0.735c-1.336,2.572-3.033,6.406-3.832,8.212l-0.712,1.607   l-1.731-0.307c-0.14-0.025-13.69-2.404-26.767-2.577l0.015,0.01c-4.205,6.326-7.81,9.427-10.977,9.427   c-0.367,0-0.727-0.042-1.083-0.124c-3.227-0.753-4.766-4.713-5.446-7.381c-1.098,0.375-2.054,0.8-2.845,1.28l-1.621,0.981   l-1.239-1.434c-3.792-4.388-8.378-8.264-10.156-8.629c-0.241,0.811-0.54,3.912,2.88,14.228l0.213,0.645l-0.18,0.657   c-0.015,0.054-1.484,5.493-1.12,11.349c0.452,7.262,3.437,11.798,8.872,13.48l0.576,0.178c8.523,2.64,20.196,6.257,31.875,6.257   c11.206,0,19.876-3.298,26.494-10.082c0.869-1.618,6.337-12.62,0.903-23.954C86.622,16.707,85.656,11.917,84.951,8.419z    M60.039,32.244c0.474-0.698,1.204-1.082,2.059-1.082v2.242c-0.124,0-0.156,0.029-0.202,0.097c-0.1,0.149-0.16,0.409-0.16,0.699   c0,0.633,0.246,0.819,0.366,0.912c0.121-0.093,0.368-0.279,0.368-0.912c0-0.29-0.059-0.55-0.16-0.699   c-0.046-0.068-0.078-0.097-0.203-0.097v-2.242c0.856,0,1.588,0.383,2.06,1.082c0.357,0.527,0.546,1.205,0.546,1.958   c0,1.67-0.977,3.4-2.61,3.4c-1.632,0-2.607-1.73-2.608-3.4C59.492,33.449,59.682,32.771,60.039,32.244z M44.098,43.639   c-0.442,1.04-1.91,1.351-3.506,1.351c-0.708,0-1.442-0.061-2.123-0.147c-4.398-0.555-4.6-1.873-4.666-2.306   c-0.068-0.449,0.015-1.294,1.338-1.899l0.004,0.009c0.137-0.099,0.292-0.203,0.469-0.312c1.365-0.844,4.151-1.86,7.468,0.821   C44.357,42.185,44.338,43.074,44.098,43.639z M43.19,34.202c-0.001-0.753,0.188-1.431,0.546-1.958   c0.473-0.698,1.205-1.082,2.059-1.082v2.242c-0.124,0-0.157,0.029-0.203,0.097c-0.1,0.149-0.16,0.409-0.16,0.699   c0,0.633,0.247,0.819,0.367,0.912c0.12-0.093,0.368-0.279,0.368-0.912c0-0.29-0.059-0.55-0.16-0.699   c-0.046-0.068-0.079-0.097-0.204-0.097v-2.242c0.856,0,1.588,0.383,2.06,1.082c0.358,0.527,0.546,1.205,0.546,1.958   c0,1.67-0.977,3.4-2.61,3.4C44.167,37.603,43.191,35.873,43.19,34.202z M58.22,51.328c-1.053,0-1.931-0.283-2.628-0.85   c-0.383-0.312-0.674-0.683-0.898-1.084c-0.237,0.487-0.558,0.944-0.986,1.335c-0.834,0.76-1.928,1.141-3.271,1.141   c-0.967,0-2.063-0.198-3.283-0.593l0.691-2.133c1.439,0.465,3.359,0.833,4.352-0.072c0.942-0.859,0.933-2.708,0.8-3.791   c-1.618-0.618-3.347-1.741-3.843-3.139c-0.393-1.105-0.011-2.234,1.048-3.095l0.309-0.251h8.642l-0.17,1.27   c-0.155,1.162-0.772,4.589-2.674,5.505c-0.104,0.987-0.086,2.532,0.7,3.167c0.77,0.623,2.415,0.411,4.631-0.592l0.927,2.042   C60.89,50.948,59.438,51.328,58.22,51.328z M73.248,42.518c-0.442,1.04-1.909,1.351-3.506,1.351c-0.708,0-1.442-0.061-2.123-0.147   c-4.399-0.555-4.6-1.873-4.665-2.306c-0.069-0.449,0.013-1.294,1.338-1.899l0.003,0.009c0.137-0.099,0.293-0.203,0.469-0.312   c1.365-0.844,4.149-1.86,7.47,0.82C73.508,41.063,73.489,41.953,73.248,42.518z"/><path fill="none" d="M65.943,41.121c-0.004,0.002-0.008,0.005-0.012,0.007c1.281,0.36,3.438,0.58,4.657,0.467   C68.964,40.379,67.403,40.221,65.943,41.121z"/><path fill="none" d="M56.515,41.04h-5.157c-0.15,0.19-0.113,0.295-0.092,0.354c0.347,0.976,2.962,2.169,4.044,2.169   C55.593,43.562,56.152,42.494,56.515,41.04z"/><path d="M92.968,19.569c-2.061-4.297-2.963-8.77-3.62-12.036c-0.791-3.921-1.313-6.511-3.928-6.511   c-2.239,0-3.505,1.763-7.844,11.469c-4.334-0.691-16.006-2.368-27.295-2.368c-8.622,0-15.168,1.005-19.507,2.991   c-2.879-3.151-8.656-8.877-12.614-8.877c-1.353,0-2.522,0.587-3.292,1.654c-1.323,1.832-2.113,5.396,1.955,17.861   c-2.231,8.798-2.659,25.434,10.925,29.64l0.576,0.178c2.826,0.876,5.991,1.854,9.39,2.78c-0.637,2.575-1.42,6.779-0.885,10.258   l-0.061-0.021c-1.093,3.029-1.954,5.648-2.63,7.92c-4.464-1.032-10.777-3.467-10.35-6.881c0.835-6.683-6.344-11.552-11.374-13.193   c-2.95-0.964-4.89-0.658-5.762,0.909c-0.771,1.39-1.542,3.18-0.643,4.706c0.44,0.749,1.181,1.229,2.078,1.363   c1.27,0.796,4.671,4.134,5.816,5.904c-0.572,0.68-0.912,1.666-0.698,2.982c0.327,2.012,3.537,7.688,5.865,7.778   c-0.332-0.013-0.562-0.1-0.587-0.108c0.198,0.077,0.985,0.466,1.679,0.809c5.48,2.705,9.31,4.37,11.918,4.712   c-0.365,2.928-0.062,4.345,0.31,5.029c0.314,0.58,0.771,1.029,1.319,1.307c0.034,0.286,0.054,0.673,0.069,0.961   c0.084,1.596,0.211,4.01,2.354,5.206c0.667,0.372,1.431,0.562,2.325,0.562c1.625,0,3.689-0.641,6.362-1.942   c1.547,2.547,3.823,4.546,6.194,4.546c0.262,0,0.525-0.024,0.789-0.074c1.746-0.337,3.81-1.808,3.991-6.782   c1.604-0.21,4.666-0.095,7.867,0.301c0.112,1.414,0.724,2.947,1.357,3.919c1.445,2.217,3.197,2.391,4.11,2.293   c1.902-0.197,3.245-1.733,4.213-3.463c1.16,0.104,2.24,0.162,3.238,0.162c3.587,0,6.146-0.687,7.89-2.092   c2.288-1.842,2.522-4.351,2.678-6.012c0.038-0.409,0.091-0.969,0.109-1.056c0.673-1.007,2.229-3.361-7.568-19.611l0.014-0.189   l-2.634-8.987c5.54-1.936,10.354-5.002,14.386-9.202l0.177-0.186l0.133-0.222C92.098,47.392,99.882,33.992,92.968,19.569z    M20.206,73.828c-0.743-0.754-2.059-2.711-2.461-3.808c0.766-0.669,1.125-1.712,0.919-2.837c-0.352-1.922-3.269-5.467-5.993-7.835   c1.555,0.718,3.37,1.829,4.803,3.338c1.415,1.488,2.042,2.963,1.865,4.383c-0.93,7.438,8.801,10.645,13.626,11.77   c-0.017,0.068-0.034,0.14-0.05,0.208c-1.224,0.1-4.833-1.361-10.767-4.291C21.176,74.275,20.605,73.993,20.206,73.828z    M32.126,79.735c0.231-0.413,0.582-0.604,0.781-0.661c-0.079,0.335-0.154,0.661-0.222,0.974L32.126,79.735z M49.064,14.618   c-4.793,6.827-7.574,7.423-8.837,7.13c-1.994-0.463-3.201-3.484-3.797-5.823C39.727,15.123,43.986,14.679,49.064,14.618z    M38.418,92.072c-0.1-0.354-0.137-1.069-0.161-1.524c-0.068-1.284-0.186-3.53-1.95-4.503c-0.122-1.877,1.132-7.004,2.806-12.355   c0.546,2.11,1.084,4.636,1.612,7.117c0.733,3.445,1.488,6.97,2.326,9.678C40.055,91.964,38.806,92.09,38.418,92.072z M55.951,87.81   c0.302-3.968,1.034-6.185,1.454-7.044c1.214-0.093,3.641-0.187,5.08-0.15c0.524,1.577,1.078,4.98,1.314,7.478   C61.412,87.804,58.418,87.576,55.951,87.81z M68.791,94.104c-0.329-0.503-0.653-1.394-0.685-1.873   c0.916-2.972-0.834-12.13-1.841-14.187c-0.523-1.072-1.266-1.683-2.203-1.816c-1.504-0.217-6.917-0.043-8.157,0.206   c-4.449,0.889-4.577,13.691-4.577,15.148c0,1.905-0.314,2.737-0.476,3.039c-0.613-0.256-2.019-1.49-2.971-3.871   c-0.973-2.434-1.886-6.728-2.77-10.878c-1.086-5.106-2.113-9.93-3.43-12.453c-1.065-2.042-0.458-6.569,0.375-9.958   c5.537,1.322,11.543,2.358,17.665,2.533c0.599,2.829,2.985,12.261,8.557,14.521c0.823,0.334,1.671,0.501,2.541,0.501   c1.138,0,2.312-0.286,3.52-0.854c-0.728,5.095-1.975,11.801-3.988,16.978C69.67,92.892,69.113,93.726,68.791,94.104z    M82.683,86.991c-0.133,1.42-0.269,2.326-1.024,2.936c-0.653,0.524-2.33,1.262-6.479,1.058c1.857-5.437,3.007-11.832,3.678-16.663   c2.396,4.403,4.315,8.499,4.443,9.928C82.857,85.114,82.77,86.065,82.683,86.991z M75.167,67.024   c-0.059,0.694-0.205,2.271-0.458,4.347c-2.086,1.387-3.918,1.746-5.587,1.067c-3.918-1.587-6.251-8.657-7.103-12.42   c3.808-0.033,7.391-0.435,10.741-1.207L75.167,67.024z M88.021,45.462c-6.618,6.784-15.288,10.082-26.494,10.082   c-11.68,0-23.352-3.617-31.875-6.257l-0.576-0.178c-5.435-1.682-8.42-6.218-8.872-13.48c-0.364-5.856,1.105-11.295,1.12-11.349   l0.18-0.657l-0.213-0.645c-3.42-10.316-3.121-13.417-2.88-14.228c1.777,0.365,6.364,4.241,10.156,8.629l1.239,1.434l1.621-0.981   c0.791-0.479,1.748-0.904,2.845-1.28c0.681,2.667,2.219,6.628,5.446,7.381c0.355,0.083,0.715,0.124,1.083,0.124   c3.167,0,6.772-3.101,10.977-9.427l-0.015-0.01c13.076,0.173,26.627,2.552,26.767,2.577l1.731,0.307l0.712-1.607   c0.799-1.806,2.496-5.64,3.832-8.212c0.05,0.25,0.101,0.497,0.148,0.735c0.705,3.497,1.671,8.287,3.973,13.089   C94.357,32.842,88.89,43.844,88.021,45.462z"/><path d="M72.233,40.034c-3.32-2.681-6.104-1.665-7.47-0.82c-0.176,0.109-0.332,0.213-0.469,0.312l-0.003-0.009   c-1.325,0.604-1.407,1.45-1.338,1.899c0.065,0.433,0.266,1.751,4.665,2.306c0.681,0.086,1.415,0.147,2.123,0.147   c1.597,0,3.063-0.311,3.506-1.351C73.489,41.953,73.508,41.063,72.233,40.034z M65.932,41.128c0.004-0.002,0.008-0.005,0.012-0.007   c1.46-0.9,3.021-0.741,4.646,0.475C69.37,41.708,67.213,41.488,65.932,41.128z"/><path d="M43.082,41.155c-3.317-2.681-6.104-1.665-7.468-0.821c-0.177,0.109-0.332,0.213-0.469,0.312l-0.004-0.009   c-1.323,0.604-1.406,1.45-1.338,1.899c0.066,0.433,0.268,1.751,4.666,2.306c0.681,0.086,1.415,0.147,2.123,0.147   c1.596,0,3.063-0.311,3.506-1.351C44.338,43.074,44.357,42.185,43.082,41.155z M36.782,42.249c0.003-0.002,0.007-0.005,0.011-0.007   c1.459-0.901,3.02-0.741,4.645,0.475C40.22,42.83,38.063,42.61,36.782,42.249z"/><path d="M57.008,48.739c-0.786-0.635-0.805-2.181-0.7-3.167c1.901-0.916,2.519-4.343,2.674-5.505l0.17-1.27H50.51l-0.309,0.251   c-1.059,0.861-1.441,1.99-1.048,3.095c0.497,1.398,2.225,2.521,3.843,3.139c0.133,1.082,0.143,2.931-0.8,3.791   c-0.992,0.905-2.912,0.538-4.352,0.072l-0.691,2.133c1.22,0.395,2.316,0.593,3.283,0.593c1.343,0,2.437-0.381,3.271-1.141   c0.429-0.392,0.749-0.848,0.986-1.335c0.225,0.401,0.516,0.772,0.898,1.084c0.697,0.566,1.575,0.85,2.628,0.85   c1.219,0,2.67-0.38,4.346-1.139l-0.927-2.042C59.423,49.15,57.777,49.362,57.008,48.739z M51.266,41.393   c-0.021-0.059-0.059-0.164,0.092-0.354h5.157c-0.362,1.454-0.922,2.522-1.205,2.522C54.228,43.562,51.612,42.369,51.266,41.393z"/><path d="M62.102,37.603c1.634,0,2.61-1.73,2.61-3.4c0-0.753-0.188-1.431-0.546-1.958c-0.472-0.698-1.203-1.082-2.06-1.082v2.242   c0.125,0,0.157,0.029,0.203,0.097c0.102,0.149,0.16,0.409,0.16,0.699c0,0.633-0.247,0.819-0.368,0.912   c-0.12-0.093-0.366-0.279-0.366-0.912c0-0.29,0.061-0.55,0.16-0.699c0.046-0.068,0.078-0.097,0.202-0.097v-2.242   c-0.854,0-1.585,0.383-2.059,1.082c-0.357,0.527-0.547,1.205-0.546,1.958C59.494,35.873,60.47,37.603,62.102,37.603z"/><path d="M48.409,34.202c0-0.753-0.188-1.431-0.546-1.958c-0.472-0.698-1.203-1.082-2.06-1.082v2.242   c0.125,0,0.158,0.029,0.204,0.097c0.101,0.149,0.16,0.409,0.16,0.699c0,0.633-0.248,0.819-0.368,0.912   c-0.121-0.093-0.367-0.279-0.367-0.912c0-0.29,0.061-0.55,0.16-0.699c0.046-0.068,0.079-0.097,0.203-0.097v-2.242   c-0.854,0-1.585,0.383-2.059,1.082c-0.358,0.527-0.547,1.205-0.546,1.958c0.001,1.67,0.977,3.4,2.609,3.4   C47.433,37.603,48.409,35.873,48.409,34.202z"/></g><text x="0" y="115" fill="#000000" font-size="5px" font-weight="bold" font-family="'Helvetica Neue', Helvetica, Arial-Unicode, Arial, Sans-serif">Created by Pulmrose Fern</text><text x="0" y="120" fill="#000000" font-size="5px" font-weight="bold" font-family="'Helvetica Neue', Helvetica, Arial-Unicode, Arial, Sans-serif">from the Noun Project</text></svg>