<svg xmlns="http://www.w3.org/2000/svg" xmlns:xlink="http://www.w3.org/1999/xlink" version="1.1" x="0px" y="0px" viewBox="0 0 100 125" enable-background="new 0 0 100 100" xml:space="preserve"><g><path  fill="#FDE792" d="M52.192,36.102h-5.046c-0.147,0.186-0.11,0.288-0.089,0.346c0.339,0.955,2.897,2.123,3.956,2.123   C51.291,38.57,51.838,37.524,52.192,36.102z"/><path 
fill="#FDE792" d="M65.962,35.549c-1.59-1.19-3.116-1.345-4.546-0.465c-0.003,0.002-0.007,0.005-0.01,0.007   C62.659,35.445,64.768,35.659,65.962,35.549z"/><path 
fill="#FDE792" d="M32.897,36.181c-0.003,0.002-0.007,0.004-0.011,0.007c1.253,0.354,3.365,0.569,4.556,0.457   C35.852,35.456,34.325,35.3,32.897,36.181z"/><path 
fill="#FDE792" d="M66.08,61.477c0.035,0.15,0.509,1.376,6.221,1.72c-0.285-2.314-0.646-4.576-1.05-6.694   C68.366,58.273,65.843,60.453,66.08,61.477z"/><path 
fill="#FDE792" d="M92.199,49.48c0.016-0.974,0.13-1.784,0.319-2.467c-0.627,0.456-1.405,0.863-2.388,1.161   c-0.812,0.246-1.544,0.347-2.2,0.347c-1.524,0-2.635-0.548-3.371-1.106c-0.73-0.554-1.283-1.268-1.708-2.038   c-2.596,2.672-5.266,4.977-8.001,6.914c0.389,1.719,1.078,5.022,1.646,9.047C80.772,60.427,92.078,57.278,92.199,49.48z"/><path 
fill="#FDE792" d="M34.543,15.966c2.525-0.514,4.582-2.927,6.144-7.142c-5.632,0.014-11.213,0.698-15.997,2.498   C26.936,13.524,30.905,16.703,34.543,15.966z"/><path 
fill="#FDE792" d="M72.551,65.409c-5.451-0.275-8.125-1.351-8.608-3.438c-0.414-1.785,1.176-3.669,3.105-5.231   c-4.769,2.083-9.71,3.142-14.804,3.142c-0.028,0-0.058,0-0.087,0c-6.948-0.015-13.326-1.977-18.795-4.63   c-0.392,3.442-0.903,9.326-0.688,15.357c0.278,7.792,1.807,17.368,7.443,19.505c0.649-0.284,1.236-0.923,1.056-2.304   c-0.106-0.814-0.633-2.273-1.191-3.819c-1.988-5.506-4.993-13.826-0.012-20.414l3.5,2.646c-2.73,3.611-1.922,8.411-0.6,12.662   c4.715,1.974,15.175,4.974,20.113,0.607c0.481-7.673-0.063-9.912-0.517-10.525c0.179,0.243,0.722,0.394,0.998,0.274l-1.853-3.978   c1.229-0.571,2.518-0.479,3.536,0.25c2.687,1.925,3.059,7.996,1.428,23.208c-0.038,0.341-0.07,0.654-0.101,0.935   c0.573-0.187,1.26-0.47,1.848-0.775C72.997,85.915,73.567,75.493,72.551,65.409z"/><path 
fill="#FDE792" d="M28.77,84.064l0.568,2.208c0.46,0.208,1.148,0.415,1.927,0.342c-0.332-0.749-0.638-1.545-0.915-2.394   L28.77,84.064z"/><path 
fill="#FDE792" d="M27.383,81.877l0.015-0.152l2.296,0.227c-0.504-2.041-0.873-4.328-1.116-6.841   c-1.203,1.959-2.088,4.006-1.908,5.472C26.736,81.127,26.962,81.527,27.383,81.877z"/><path 
fill="#FDE792" d="M77.021,65.717c0.026,0.261,0.049,0.527,0.071,0.792c0.947,0.53,2.35,1.385,3.721,2.483   c6.53-1.29,10.885-4.424,12.899-9.373c0.514-1.264,0.828-2.533,1-3.74C90.589,62.413,80.816,64.954,77.021,65.717z"/><path 
fill="#FDE792" d="M52.243,55.495c10.45,0,20.299-5.1,29.292-15.137c-0.017-0.285-0.023-0.528-0.026-0.704l-2.48-11.043   l4.28-0.962l2.594,11.543l-0.005,0.267c-0.023,1.378,0.381,3.755,1.317,4.461c0.129,0.097,0.52,0.393,1.644,0.053   c1.356-0.411,1.622-1.057,1.71-1.269c0.562-1.363-0.369-3.578-0.65-4.096l-0.45-0.835l0.245-0.741   c0.01-0.503-0.166-1.977-0.321-3.286c-0.357-2.999-0.897-7.531-1.004-12.972c-0.106-5.444-1.116-6.33-2.286-7.355   c-0.689-0.604-1.54-1.351-2.266-2.637c-1.196-0.474-5.982,0.887-10.029,2.87l-0.789,0.387l-0.839-0.266   c-0.228-0.072-14.481-4.508-29.169-4.918c-1.869,5.44-4.564,8.558-8.034,9.262c-0.505,0.103-1.011,0.15-1.515,0.15   c-4.521,0-8.838-3.82-10.954-6.023c-1.269,0.608-2.472,1.304-3.577,2.113l-1.871-2.556l-0.52-0.02c0-0.001,0-0.002,0-0.003l0,0l0,0   c0.008-0.229,0.005-0.458,0.001-0.686l-0.202-0.276c0.062-0.045,0.128-0.084,0.191-0.128c-0.087-1.991-0.568-3.79-1.021-4.079   c0,0.009-0.18,0.007-0.559,0.184c-3.841,1.784-4.53,7.069-4.537,7.122l-0.021,0.148c-2.56,14.163-4.73,30.238-3.933,32.622   c0.737,1.718,2.243,2.942,3.091,2.955c0.67-0.025,1.45-1.109,2.038-2.828c2.376-6.961,3.324-11.104,2.423-21.547l4.372-0.377   c0.507,5.875,0.448,10.013-0.136,13.817c3.135,3.298,16.973,16.762,33.947,16.79C52.209,55.495,52.228,55.495,52.243,55.495z    M59.801,33.515l0.004,0.009c0.134-0.097,0.286-0.198,0.458-0.306c1.336-0.826,4.061-1.82,7.309,0.803   c1.246,1.007,1.229,1.877,0.992,2.43c-0.433,1.017-1.868,1.321-3.431,1.321c-0.692,0-1.41-0.06-2.076-0.144   c-4.305-0.543-4.501-1.832-4.564-2.256C58.425,34.933,58.506,34.105,59.801,33.515z M54.053,27.538   c0.463-0.684,1.179-1.059,2.014-1.059v2.194c-0.12,0-0.152,0.027-0.198,0.094c-0.097,0.146-0.156,0.4-0.156,0.685   c0,0.619,0.241,0.801,0.359,0.892c0.117-0.091,0.36-0.273,0.36-0.892c0-0.284-0.058-0.539-0.157-0.685   c-0.045-0.067-0.076-0.094-0.199-0.094v-2.194c0.838,0,1.554,0.375,2.015,1.059c0.351,0.515,0.535,1.178,0.535,1.916   c0,1.635-0.956,3.327-2.554,3.327c-1.597,0-2.552-1.692-2.553-3.327C53.518,28.716,53.702,28.053,54.053,27.538z M40.044,37.548   c-0.433,1.017-1.869,1.321-3.43,1.321c-0.693,0-1.411-0.06-2.077-0.144c-4.304-0.543-4.5-1.832-4.565-2.256   c-0.066-0.439,0.014-1.267,1.31-1.858l0.004,0.009c0.133-0.097,0.286-0.198,0.458-0.305c1.336-0.826,4.062-1.819,7.307,0.803   C40.298,36.125,40.279,36.995,40.044,37.548z M40.006,29.454c-0.001-0.737,0.184-1.4,0.535-1.916   c0.463-0.684,1.178-1.059,2.014-1.059v2.194c-0.121,0-0.153,0.027-0.198,0.094c-0.097,0.146-0.156,0.4-0.156,0.685   c0,0.619,0.241,0.801,0.359,0.892c0.118-0.091,0.36-0.273,0.36-0.892c0-0.284-0.058-0.539-0.156-0.685   c-0.045-0.067-0.077-0.094-0.199-0.094v-2.194c0.837,0,1.553,0.375,2.015,1.059c0.35,0.515,0.535,1.178,0.535,1.916   c0,1.635-0.956,3.327-2.554,3.327C40.961,32.78,40.007,31.088,40.006,29.454z M50.18,45.186c-1.862,1.099-4.568,0.307-8.271-2.42   l1.302-1.767c3.912,2.882,5.396,2.566,5.854,2.298c0.701-0.414,0.901-1.685,0.905-2.669c-1.814-0.408-4.364-1.713-4.979-3.445   c-0.385-1.082-0.011-2.186,1.025-3.029l0.302-0.246h8.454l-0.166,1.242c-0.144,1.073-0.688,4.123-2.311,5.216   c0.364,1.347,1.168,3.334,2.542,3.821c1.379,0.488,3.131-0.715,4.358-1.811l1.462,1.637c-1.852,1.653-3.572,2.484-5.136,2.484   c-0.49,0-0.965-0.082-1.422-0.245c-1.192-0.424-2.061-1.33-2.685-2.334C51.123,44.42,50.724,44.864,50.18,45.186z"/><path 
fill="#FDE792" d="M77.401,71.92c0.105,4.88-0.31,9.798-1.723,13.776c0.328-0.138,0.672-0.296,1.021-0.482   c-0.22-3.415,0.209-3.918,0.624-4.405c0.213-0.292,1.581-2.513,2.702-4.369l0.294-0.386c0.319-0.332,0.291-0.496,0.27-0.626   C80.423,74.454,79.029,73.111,77.401,71.92z"/><line 
fill="#FDE792" stroke="#FDE792" stroke-width="0" stroke-linecap="round" stroke-linejoin="round" x1="16.539" y1="11.779" x2="16.539" y2="11.779"/><path d="M99.158,51.308c-0.209-2.025-1.012-6.686-3.969-6.686c-0.042,0-0.083,0.001-0.126,0.002   c-0.211,0.009-0.41,0.044-0.598,0.094c0.057-0.116,0.114-0.232,0.159-0.342c1.141-2.771,0.069-5.847-0.528-7.195   c0.021-0.845-0.119-2.023-0.349-3.953c-0.347-2.913-0.872-7.315-0.973-12.539c-0.136-6.837-1.722-8.762-3.782-10.569   c-0.582-0.512-1.005-0.882-1.369-1.556c-2.383-4.393-10.722-1.216-14.959,0.771c-5.408-1.612-34.18-9.505-51.961-1.08   c-0.324-1.986-1.078-4.173-2.768-5.299c-0.964-0.641-2.584-1.187-4.834-0.142c-5.836,2.71-6.92,9.623-7.038,10.529   C4.39,22.606,0.714,44.417,2.415,48.386c1.178,2.746,3.885,5.643,7.099,5.643c0.067,0,0.135-0.001,0.203-0.003   c1.869-0.07,4.431-1.135,6.022-5.794c0.533-1.562,0.994-3.01,1.387-4.418c2.568,2.463,6.739,6.044,12.084,9.209   c-0.355,2.693-1.012,8.617-0.97,15.193c-1.777,2.032-6.526,7.973-5.928,12.895c0.2,1.646,0.967,3.047,2.223,4.107l0.975,3.789   l0.625,0.464c0.962,0.713,2.772,1.546,4.865,1.546c0.837,0,1.72-0.141,2.611-0.468c1.609,1.992,3.567,3.331,5.89,3.979l0.495,0.138   l0.505-0.096c2.345-0.447,5.617-2.768,5.022-7.326c-0.115-0.878-0.415-1.877-0.81-3.027c2.954,0.95,6.971,1.935,10.98,1.935   c2.371,0,4.727-0.362,6.857-1.262c-0.099,1.055-0.211,2.169-0.34,3.366c-0.121,1.125-0.21,1.968-0.236,2.394   c-0.081,1.31,0.441,2.429,1.436,3.068c0.602,0.387,1.308,0.539,2.051,0.539c1.772,0,3.75-0.876,4.985-1.534l0.119-0.069   c0.991-0.61,1.84-1.396,2.582-2.302c0.359,0.088,0.727,0.127,1.1,0.127c2.477,0,5.147-1.704,5.995-2.291l1.053-0.729l-0.119-1.275   c-0.107-1.16-0.163-2.447-0.141-3.044c0.369-0.552,1.104-1.711,2.634-4.246c1.075-1.222,1.505-2.668,1.243-4.199   c-0.116-0.685-0.385-1.344-0.743-1.979C96.412,69.189,99.98,59.27,99.158,51.308z M71.251,56.502   c0.403,2.118,0.765,4.38,1.05,6.694c-5.712-0.344-6.186-1.569-6.221-1.72C65.843,60.453,68.366,58.273,71.251,56.502z    M74.851,52.291c2.735-1.937,5.405-4.242,8.001-6.914c0.425,0.771,0.978,1.484,1.708,2.038c0.736,0.558,1.847,1.106,3.371,1.106   c0.656,0,1.389-0.102,2.2-0.347c0.982-0.298,1.761-0.706,2.388-1.161c-0.189,0.683-0.304,1.494-0.319,2.467   c-0.121,7.798-11.427,10.947-15.703,11.858C75.929,57.313,75.239,54.01,74.851,52.291z M40.687,8.824   c-1.562,4.215-3.618,6.628-6.144,7.142c-3.638,0.737-7.607-2.442-9.854-4.644C29.473,9.521,35.054,8.838,40.687,8.824z    M18.247,38.706c0.584-3.804,0.643-7.941,0.136-13.817l-4.372,0.377c0.901,10.443-0.047,14.585-2.423,21.547   C11,48.532,10.22,49.615,9.55,49.641c-0.848-0.013-2.354-1.237-3.091-2.955c-0.797-2.384,1.374-18.459,3.933-32.622l0.021-0.148   c0.006-0.053,0.696-5.338,4.537-7.122c0.379-0.176,0.559-0.175,0.559-0.184c0.454,0.289,0.935,2.088,1.021,4.079   c-0.062,0.044-0.129,0.083-0.191,0.128l0.202,0.276c0.004,0.228,0.007,0.457-0.001,0.686c0,0.001,0,0.002,0,0.003l0.52,0.02   l1.871,2.556c1.105-0.809,2.308-1.505,3.577-2.113c2.116,2.203,6.434,6.023,10.954,6.023c0.503,0,1.009-0.048,1.515-0.15   c3.47-0.704,6.166-3.822,8.034-9.262c14.688,0.41,28.941,4.846,29.169,4.918l0.839,0.266l0.789-0.387   c4.047-1.983,8.833-3.344,10.029-2.87c0.726,1.287,1.576,2.033,2.266,2.637c1.17,1.025,2.18,1.912,2.286,7.355   c0.106,5.441,0.646,9.973,1.004,12.972c0.155,1.309,0.331,2.782,0.321,3.286l-0.245,0.741l0.45,0.835   c0.281,0.519,1.212,2.733,0.65,4.096c-0.088,0.212-0.354,0.858-1.71,1.269c-1.124,0.34-1.515,0.043-1.644-0.053   c-0.937-0.707-1.341-3.083-1.317-4.461l0.005-0.267l-2.594-11.543l-4.28,0.962l2.48,11.043c0.003,0.176,0.01,0.418,0.026,0.704   c-8.993,10.038-18.842,15.137-29.292,15.137c-0.016,0-0.034,0-0.05,0C35.219,55.468,21.382,42.004,18.247,38.706z M28.578,75.11   c0.243,2.513,0.612,4.8,1.116,6.841l-2.296-0.227l-0.015,0.152c-0.42-0.35-0.647-0.75-0.713-1.295   C26.49,79.116,27.375,77.069,28.578,75.11z M29.338,86.272l-0.568-2.208l1.58,0.156c0.277,0.849,0.583,1.645,0.915,2.394   C30.486,86.688,29.798,86.48,29.338,86.272z M68.322,88.881c-0.588,0.306-1.274,0.589-1.848,0.775   c0.03-0.28,0.062-0.594,0.101-0.935c1.631-15.212,1.259-21.283-1.428-23.208c-1.019-0.729-2.308-0.821-3.536-0.25l1.853,3.978   c-0.276,0.119-0.819-0.031-0.998-0.274c0.453,0.613,0.998,2.853,0.517,10.525c-4.938,4.366-15.398,1.366-20.113-0.607   c-1.322-4.251-2.13-9.051,0.6-12.662l-3.5-2.646c-4.981,6.588-1.976,14.908,0.012,20.414c0.558,1.546,1.085,3.005,1.191,3.819   c0.181,1.381-0.407,2.02-1.056,2.304c-5.636-2.137-7.165-11.713-7.443-19.505c-0.215-6.031,0.296-11.915,0.688-15.357   c5.469,2.653,11.847,4.615,18.795,4.63c0.029,0,0.059,0,0.087,0c5.094,0,10.035-1.059,14.804-3.142   c-1.93,1.562-3.52,3.446-3.105,5.231c0.483,2.087,3.157,3.162,8.608,3.438C73.567,75.493,72.997,85.915,68.322,88.881z    M80.319,76.054l-0.294,0.386c-1.121,1.856-2.489,4.077-2.702,4.369c-0.415,0.487-0.844,0.99-0.624,4.405   c-0.349,0.187-0.692,0.345-1.021,0.482c1.413-3.979,1.828-8.896,1.723-13.776c1.628,1.191,3.021,2.534,3.188,3.508   C80.61,75.558,80.639,75.722,80.319,76.054z M80.812,68.992c-1.371-1.099-2.773-1.953-3.721-2.483   c-0.022-0.265-0.045-0.531-0.071-0.792c3.796-0.763,13.568-3.304,17.691-9.838c-0.172,1.207-0.486,2.477-1,3.74   C91.697,64.568,87.343,67.702,80.812,68.992z"/><path d="M58.492,35.373c0.063,0.424,0.26,1.713,4.564,2.256c0.666,0.084,1.384,0.144,2.076,0.144c1.562,0,2.998-0.304,3.431-1.321   c0.236-0.553,0.254-1.423-0.992-2.43c-3.248-2.623-5.973-1.629-7.309-0.803c-0.172,0.107-0.324,0.209-0.458,0.306l-0.004-0.009   C58.506,34.105,58.425,34.933,58.492,35.373z M61.416,35.084c1.43-0.88,2.956-0.726,4.546,0.465   c-1.194,0.11-3.303-0.104-4.556-0.458C61.409,35.089,61.413,35.086,61.416,35.084z"/><path d="M39.05,35.118c-3.245-2.622-5.971-1.628-7.307-0.803c-0.173,0.107-0.325,0.208-0.458,0.305l-0.004-0.009   c-1.295,0.591-1.376,1.418-1.31,1.858c0.065,0.424,0.262,1.713,4.565,2.256c0.666,0.084,1.384,0.144,2.077,0.144   c1.561,0,2.997-0.304,3.43-1.321C40.279,36.995,40.298,36.125,39.05,35.118z M32.886,36.188c0.004-0.003,0.007-0.005,0.011-0.007   c1.428-0.881,2.955-0.725,4.545,0.464C36.251,36.758,34.14,36.542,32.886,36.188z"/><path d="M54.1,46.253c0.457,0.163,0.932,0.245,1.422,0.245c1.563,0,3.284-0.831,5.136-2.484l-1.462-1.637   c-1.228,1.095-2.979,2.298-4.358,1.811c-1.374-0.487-2.178-2.475-2.542-3.821c1.623-1.093,2.167-4.143,2.311-5.216l0.166-1.242   h-8.454l-0.302,0.246c-1.036,0.843-1.41,1.947-1.025,3.029c0.615,1.732,3.166,3.037,4.979,3.445   c-0.004,0.985-0.204,2.256-0.905,2.669c-0.458,0.269-1.943,0.584-5.854-2.298l-1.302,1.767c3.703,2.728,6.41,3.52,8.271,2.42   c0.544-0.322,0.943-0.766,1.235-1.267C52.039,44.923,52.907,45.829,54.1,46.253z M47.057,36.448   c-0.021-0.058-0.058-0.16,0.089-0.346h5.046c-0.354,1.422-0.901,2.468-1.18,2.468C49.954,38.57,47.396,37.403,47.057,36.448z"/><path d="M45.112,29.454c0-0.737-0.185-1.4-0.535-1.916c-0.461-0.684-1.177-1.059-2.015-1.059v2.194   c0.122,0,0.154,0.027,0.199,0.094c0.099,0.146,0.156,0.4,0.156,0.685c0,0.619-0.242,0.801-0.36,0.892   c-0.118-0.091-0.359-0.273-0.359-0.892c0-0.284,0.059-0.539,0.156-0.685c0.045-0.067,0.078-0.094,0.198-0.094v-2.194   c-0.835,0-1.551,0.375-2.014,1.059c-0.351,0.515-0.536,1.178-0.535,1.916c0.001,1.635,0.956,3.327,2.553,3.327   C44.157,32.78,45.112,31.088,45.112,29.454z"/><path d="M56.071,32.78c1.598,0,2.554-1.692,2.554-3.327c0-0.737-0.185-1.4-0.535-1.916c-0.461-0.684-1.177-1.059-2.015-1.059v2.194   c0.123,0,0.154,0.027,0.199,0.094c0.1,0.146,0.157,0.4,0.157,0.685c0,0.619-0.243,0.801-0.36,0.892   c-0.118-0.091-0.359-0.273-0.359-0.892c0-0.284,0.06-0.539,0.156-0.685c0.046-0.067,0.078-0.094,0.198-0.094v-2.194   c-0.835,0-1.551,0.375-2.014,1.059c-0.351,0.515-0.535,1.178-0.534,1.916C53.52,31.088,54.475,32.78,56.071,32.78z"/></g></svg>