<svg xmlns="http://www.w3.org/2000/svg" xmlns:xlink="http://www.w3.org/1999/xlink" version="1.1" x="0px" y="0px" viewBox="0 0 96 120" style="enable-background:new 0 0 96 96;" xml:space="preserve"><g><polygon points="40.267,60 52.983,60 46.625,49.895  "/><circle cx="55.687" cy="51.171" r="2.704"/><path d="M82.207,41.768c0.016-0.369,0.028-0.74,0.028-1.114C82.235,27.038,71.188,16,57.56,16c-9.869,0-18.381,5.791-22.327,14.155   c-2.192-1.563-4.9-2.489-7.832-2.489c-7.295,0-13.208,5.717-13.208,12.768c0,1.047,0.133,2.063,0.379,3.036   C6.251,45.242,0,52.768,0,61.786C0,72.12,8.208,80,18.333,80h60.123C88.145,80,96,71.726,96,60.906   C96,51.524,90.093,43.687,82.207,41.768z M62,63.063C62,63.581,61.581,64,61.063,64H37c-0.552,0-1-0.448-1-1V44.937   C36,44.419,36.419,44,36.937,44h24.127C61.581,44,62,44.419,62,44.937V63.063z"/></g><text x="0" y="111" fill="#000000" font-size="5px" font-weight="bold" font-family="'Helvetica Neue', Helvetica, Arial-Unicode, Arial, Sans-serif">Created by Kirill Ulitin</text><text x="0" y="116" fill="#000000" font-size="5px" font-weight="bold" font-family="'Helvetica Neue', Helvetica, Arial-Unicode, Arial, Sans-serif">from the Noun Project</text></svg>