<svg xmlns="http://www.w3.org/2000/svg" xmlns:xlink="http://www.w3.org/1999/xlink" version="1.1" x="0px" y="0px" viewBox="0 0 100 125" enable-background="new 0 0 100 100" xml:space="preserve"><path fill-rule="evenodd" clip-rule="evenodd" d="M92.612,26.682c0,17.917,0,38.66,0,64.466c-28.669,0-56.492,0-85.225,0  c0-21.38,0-42.123,0-63.947c6.932,0,19.603,0,19.603,0l22.93-18.348l22.479,17.829C72.399,26.682,84.96,26.682,92.612,26.682z   M80.993,38.251c-19.325,0-43.646,0-61.65,0c0,12.003,0,30.578,0,41.548c18.869,0,43.208,0,61.65,0  C80.993,68.181,80.993,49.918,80.993,38.251z M49.904,15.55L37.053,25.758h25.988L49.904,15.55z"/><text x="0" y="115" fill="#000000" font-size="5px" font-weight="bold" font-family="'Helvetica Neue', Helvetica, Arial-Unicode, Arial, Sans-serif">Created by Rafael Garcia Motta</text><text x="0" y="120" fill="#000000" font-size="5px" font-weight="bold" font-family="'Helvetica Neue', Helvetica, Arial-Unicode, Arial, Sans-serif">from the Noun Project</text></svg>